# xmcd CD database file
#
# Track frame offsets:
#	150
#	35553
#	56617
#	89845
#	120011
#	152951
#	170615
#	195103
#	216245
#	239208
#	257676
#	292706
#	312327
#	327562
#	341673
#
# Disc length: 4720 seconds
#
# Revision: 5
# Processed by: cddbd v1.5.2PL0 Copyright (c) Steve Scherf et al.
# Submitted via: CDex 1.51
#
DISCID=dd126e0f
DTITLE=Milt Jackson - Four Classic Albums Plus  [CD 1-2]
DYEAR=2009
DGENRE=Jazz
TTITLE0=Lover  .....  { Album ~ The Jazz Skyline - 1956 }
TTITLE1=Can't Help Lovin' Dat Man
TTITLE2=The Lady Is A Tramp
TTITLE3=Angel Face
TTITLE4=Sometimes I'm Happy
TTITLE5=What's New
TTITLE6=Wonder Why .....  { Album ~ Milt Jackson Quartet - 1955 }
TTITLE7=My Funny Valentine
TTITLE8=Moonray
TTITLE9=The Nearness Of You
TTITLE10=Stonewall
TTITLE11=I Should Care
TTITLE12=Misterioso
TTITLE13=Epistrophy
TTITLE14=I Mean You
EXTD=YEAR: 2009
EXTT0=
EXTT1=
EXTT2=
EXTT3=
EXTT4=
EXTT5=
EXTT6=
EXTT7=
EXTT8=
EXTT9=
EXTT10=
EXTT11=
EXTT12=
EXTT13=
EXTT14=
PLAYORDER=
